# xmcd CD database file
#
# Track frame offsets:
#	150
#	25010
#	63429
#	90090
#	112104
#	132273
#	154020
#	183636
#	202832
#	228142
#	257098
#	275088
#	298168
#	333891
#
# Disc length: 4711 seconds
#
# Revision: 1
# Processed by: cddbd v1.5.2PL0 Copyright (c) Steve Scherf et al.
# Submitted via: CDex 1.51
#
DISCID=c012650e
DTITLE=Various Artist - Indetendances Jazz 3
DYEAR=2005
DGENRE=Jazz
TTITLE0=Elisabeth Kontomanou/I've Got the World on a String
TTITLE1=Fat Kid Wednesdays/Guinéa
TTITLE2=Isabelle Olivier et Océan/Go
TTITLE3=Artaud/Agarta
TTITLE4=Marc Berthoumieux/L'espérance en l'homme
TTITLE5=Sara Lazarus/Once Upon a summertime
TTITLE6=Glenn Ferris "Pentessence" Quintet/Boy Boy
TTITLE7=Baptiste Trotignon and David El-Malek/Children Song
TTITLE8=Rosario Giuliani/I remember Astor
TTITLE9=Le sacre du Tympan/Motorpsycho Blues
TTITLE10=E.S.T./Viaticum
TTITLE11=Enrico Pieranunzi/Words of the Sea
TTITLE12=Shangha Quartet/The Grind
TTITLE13=Laïka Fatien/Zigaboogaloo
EXTD=YEAR: 2005
EXTT0=
EXTT1=
EXTT2=
EXTT3=
EXTT4=
EXTT5=
EXTT6=
EXTT7=
EXTT8=
EXTT9=
EXTT10=
EXTT11=
EXTT12=
EXTT13=
PLAYORDER=
